<svg xmlns="http://www.w3.org/2000/svg" width="22" height="15" viewBox="0 0 22 15"><g><g><path fill="#183e6c" d="M14.801 14.85a.494.494 0 0 1-.384.153.579.579 0 0 1-.424-.153.579.579 0 0 1-.154-.424c0-.154.039-.308.154-.423l5.965-5.926H1.142a.579.579 0 0 1-.424-.154.579.579 0 0 1-.154-.423c0-.154.039-.308.154-.423a.579.579 0 0 1 .424-.154h18.816L14.032.997c-.116-.115-.154-.23-.154-.423 0-.192.038-.308.154-.423a.212.212 0 0 1 .192-.116c.039-.038.116-.038.193-.038s.154 0 .23.038c.077.039.116.077.193.116l6.926 6.926c.115.115.154.27.154.423a.579.579 0 0 1-.154.423z"/></g></g></svg>