<svg xmlns="http://www.w3.org/2000/svg" width="150" height="221" viewBox="0 0 150 221"><g><g><path fill="#183e6c" d="M0 221V0h150v221z"/></g><g><g><path fill="#fff" d="M35.663 114.326c.185-2.733.694-7.04 1.528-12.924.37 5.142.788 9.45 1.205 12.924zm-4.586-19.78L27 125.306h8.292l.463-5.513h2.872l.417 5.512h8.2l-4.586-30.759z"/></g><g><path fill="#fff" d="M56.555 94.546v24.598h4.864v6.161H48.587V94.546z"/></g><g><path fill="#fff" d="M81.57 94.546v20.568c0 2.316-.093 3.984-.232 4.91-.139.927-.602 1.9-1.343 2.919a6.982 6.982 0 0 1-2.965 2.27c-1.205.509-2.64.787-4.308.787-1.853 0-3.474-.324-4.864-.926-1.39-.603-2.455-1.39-3.15-2.363-.695-.973-1.112-1.992-1.251-3.104-.139-1.065-.185-3.381-.185-6.81V94.547h8.014v23.07c0 1.343.092 2.223.231 2.593.14.371.417.556.88.556.51 0 .834-.185.973-.602.14-.417.232-1.39.232-2.918V94.546z"/></g><g><path fill="#fff" d="M100.98 120.07v5.235H84.07v-4.4c5.003-8.2 7.968-13.25 8.94-15.195.927-1.946 1.437-3.474 1.437-4.54 0-.834-.14-1.482-.417-1.853-.278-.417-.741-.602-1.297-.602-.556 0-1.02.232-1.297.695-.278.463-.417 1.343-.417 2.733v2.919h-6.856v-1.112c0-1.714.092-3.104.278-4.077a7.098 7.098 0 0 1 1.297-2.918 6.306 6.306 0 0 1 2.733-2.177c1.112-.51 2.455-.742 4.03-.742 3.058 0 5.374.742 6.949 2.27 1.575 1.529 2.362 3.428 2.362 5.745 0 1.76-.463 3.613-1.343 5.605-.88 1.945-3.474 6.114-7.783 12.507h8.292z"/></g><g><path fill="#fff" d="M103.805 107.61h6.81v-6.81h4.632v6.856h6.856v4.632h-6.856v6.81h-4.632v-6.856h-6.81z"/></g></g></g></svg>